<svg width="35" height="35" viewBox="0 0 35 35" fill="none" xmlns="http://www.w3.org/2000/svg">
  <path d="M2.91699 32.0833C2.91699 25.64 8.14033 20.4167 14.5837 20.4167C21.027 20.4167 26.2503 25.64 26.2503 32.0833H2.91699ZM14.5837 18.9583C9.74928 18.9583 5.83366 15.0427 5.83366 10.2083C5.83366 5.37395 9.74928 1.45833 14.5837 1.45833C19.418 1.45833 23.3337 5.37395 23.3337 10.2083C23.3337 15.0427 19.418 18.9583 14.5837 18.9583ZM25.3211 22.2151C29.8206 23.365 33.2035 27.3051 33.5181 32.0833H29.167C29.167 28.2774 27.709 24.8119 25.3211 22.2151ZM22.3713 18.8955C24.7523 16.7595 26.2503 13.6588 26.2503 10.2083C26.2503 8.14137 25.7128 6.19997 24.77 4.51626C28.1101 5.18287 30.6253 8.12969 30.6253 11.6667C30.6253 15.6953 27.3623 18.9583 23.3337 18.9583C23.0074 18.9583 22.6862 18.9369 22.3713 18.8955Z" fill="url(#paint0_linear_4568_10150)"/>
  <defs>
  <linearGradient id="paint0_linear_4568_10150" x1="4.99902" y1="6.99934" x2="33.999" y2="31.9993" gradientUnits="userSpaceOnUse">
  <stop stop-color="#96C0FF"/>
  <stop offset="1" stop-color="#8686FF"/>
  </linearGradient>
  </defs>
  </svg>
  